<svg width="46" height="46" viewBox="0 0 46 46" fill="none" xmlns="http://www.w3.org/2000/svg">
<path d="M22.9999 0.919922C10.8053 0.919922 0.919922 10.8053 0.919922 22.9999C0.919922 35.1945 10.8053 45.0799 22.9999 45.0799C35.1945 45.0799 45.0799 35.1945 45.0799 22.9999C45.0799 10.8053 35.1945 0.919922 22.9999 0.919922ZM17.5949 32.1516H13.1237V17.7628H17.5949V32.1516ZM15.3317 15.9964C13.9195 15.9964 13.0064 14.9959 13.0064 13.7585C13.0064 12.4958 13.9471 11.5252 15.3892 11.5252C16.8313 11.5252 17.7145 12.4958 17.7421 13.7585C17.7421 14.9959 16.8313 15.9964 15.3317 15.9964ZM33.9249 32.1516H29.4537V24.1775C29.4537 22.3214 28.8051 21.061 27.1882 21.061C25.9531 21.061 25.2194 21.9143 24.8951 22.7354C24.7755 23.0275 24.7456 23.4415 24.7456 23.8532V32.1493H20.2721V22.3513C20.2721 20.555 20.2146 19.0531 20.1548 17.7605H24.0395L24.2442 19.7592H24.3339C24.9227 18.8208 26.3648 17.4362 28.7775 17.4362C31.7192 17.4362 33.9249 19.4073 33.9249 23.6439V32.1516Z" fill="#3F3F3F"/>
</svg>
